<svg width="148" height="43" viewBox="0 0 148 43" fill="none" xmlns="http://www.w3.org/2000/svg">
<path d="M35.4092 25.1016C38.3953 23.4326 40.6788 22.161 40.874 22.0617C41.4985 21.7239 42.1426 20.8298 40.874 20.1344C40.4641 19.9158 38.2587 18.684 35.4092 17.0945L31.4863 21.108L35.4092 25.1016Z" fill="#FFD400"/>
<path d="M31.4862 21.1079L18.9563 33.963C19.2491 34.0027 19.5808 33.9232 19.9712 33.7047C20.7909 33.2477 29.4954 28.3997 35.4091 25.1015L31.4862 21.1079Z" fill="#FF3333"/>
<path d="M31.4863 21.1079L35.4092 17.0944C35.4092 17.0944 20.8495 9.00789 19.9713 8.53104C19.6395 8.33235 19.2687 8.27275 18.9369 8.33235L31.4863 21.1079Z" fill="#48FF48"/>
<path d="M31.4862 21.1081L18.9368 8.33252C18.4294 8.45173 18 8.90871 18 9.84254C18 11.3327 18 31.2014 18 32.4531C18 33.3075 18.3318 33.9234 18.9563 33.983L31.4862 21.1081Z" fill="#3BCCFF"/>
<path d="M55.5907 16H54.7713L54.5767 15.1397C54.2353 15.5289 53.8939 15.7986 53.5525 15.9488C53.2111 16.099 52.8185 16.1741 52.3746 16.1741C51.8284 16.1741 51.3368 16.0751 50.8998 15.8771C50.4696 15.6722 50.1043 15.3957 49.8039 15.0475C49.5034 14.6992 49.2713 14.293 49.1074 13.8287C48.9503 13.3643 48.8718 12.8693 48.8718 12.3435C48.8718 11.8246 48.9503 11.333 49.1074 10.8687C49.2713 10.4043 49.5034 9.99806 49.8039 9.64983C50.1043 9.30159 50.4696 9.02505 50.8998 8.82021C51.3368 8.61537 51.8284 8.51294 52.3746 8.51294C52.7707 8.51294 53.1462 8.56757 53.5013 8.67682C53.8632 8.77924 54.1841 8.93629 54.4641 9.14796C54.744 9.3528 54.9762 9.61227 55.1605 9.92637C55.3449 10.2405 55.461 10.6024 55.5088 11.012H54.2592C54.2251 10.7731 54.15 10.5648 54.0339 10.3873C53.9246 10.2029 53.7847 10.0493 53.614 9.92637C53.4433 9.80346 53.2521 9.71128 53.0404 9.64983C52.8287 9.58838 52.6068 9.55765 52.3746 9.55765C51.9854 9.55765 51.6475 9.63617 51.3607 9.79322C51.0807 9.95027 50.852 10.1619 50.6744 10.4282C50.4969 10.6877 50.3638 10.9847 50.275 11.3193C50.1931 11.6539 50.1521 11.9953 50.1521 12.3435C50.1521 12.6918 50.1931 13.0332 50.275 13.3678C50.3638 13.7023 50.4969 14.0028 50.6744 14.2691C50.852 14.5285 51.0807 14.7368 51.3607 14.8938C51.6475 15.0509 51.9854 15.1294 52.3746 15.1294C52.7024 15.1362 52.9926 15.0953 53.2452 15.0065C53.4979 14.9109 53.7095 14.7778 53.8803 14.6071C54.0578 14.4295 54.1909 14.2144 54.2797 13.9618C54.3685 13.7092 54.4163 13.4292 54.4231 13.1219H52.4771V12.1489H55.5907V16ZM60.4536 12.8864C60.4399 12.702 60.399 12.5245 60.3307 12.3538C60.2692 12.1831 60.1805 12.0363 60.0644 11.9134C59.9551 11.7836 59.8186 11.6812 59.6547 11.6061C59.4977 11.5242 59.3201 11.4832 59.1221 11.4832C58.9173 11.4832 58.7295 11.5207 58.5588 11.5958C58.3949 11.6641 58.2515 11.7631 58.1286 11.8929C58.0125 12.0158 57.9169 12.1626 57.8418 12.3333C57.7735 12.504 57.736 12.6884 57.7292 12.8864H60.4536ZM57.7292 13.6545C57.7292 13.8594 57.7565 14.0574 57.8111 14.2486C57.8726 14.4398 57.9613 14.6071 58.0774 14.7505C58.1935 14.8938 58.3403 15.0099 58.5178 15.0987C58.6953 15.1806 58.907 15.2216 59.1528 15.2216C59.4942 15.2216 59.7674 15.1499 59.9722 15.0065C60.1839 14.8563 60.3409 14.6344 60.4434 14.3408H61.5495C61.4881 14.6275 61.3822 14.8836 61.232 15.1089C61.0818 15.3343 60.9008 15.5254 60.6892 15.6825C60.4775 15.8327 60.2385 15.9454 59.9722 16.0205C59.7127 16.1024 59.4396 16.1434 59.1528 16.1434C58.7363 16.1434 58.3676 16.0751 58.0467 15.9385C57.7257 15.802 57.4526 15.6108 57.2273 15.365C57.0088 15.1192 56.8415 14.8256 56.7254 14.4842C56.6162 14.1427 56.5616 13.7672 56.5616 13.3575C56.5616 12.982 56.6196 12.6269 56.7357 12.2923C56.8586 11.9509 57.0293 11.6539 57.2478 11.4012C57.4731 11.1418 57.7428 10.9369 58.0569 10.7867C58.371 10.6365 58.7261 10.5614 59.1221 10.5614C59.5386 10.5614 59.9108 10.6502 60.2385 10.8277C60.5731 10.9984 60.8496 11.2271 61.0681 11.5139C61.2866 11.8007 61.4437 12.1319 61.5393 12.5074C61.6417 12.8761 61.669 13.2585 61.6212 13.6545H57.7292ZM61.9762 10.7048H62.8571V9.11723H64.0247V10.7048H65.0796V11.5754H64.0247V14.4022C64.0247 14.5251 64.0281 14.631 64.0349 14.7197C64.0486 14.8085 64.0725 14.8836 64.1066 14.9451C64.1476 15.0065 64.2056 15.0543 64.2807 15.0884C64.3558 15.1158 64.4583 15.1294 64.588 15.1294C64.6699 15.1294 64.7519 15.1294 64.8338 15.1294C64.9158 15.1226 64.9977 15.1089 65.0796 15.0884V15.9898C64.9499 16.0034 64.8236 16.0171 64.7007 16.0307C64.5778 16.0444 64.4514 16.0512 64.3217 16.0512C64.0144 16.0512 63.7652 16.0239 63.574 15.9693C63.3897 15.9078 63.2429 15.8225 63.1336 15.7132C63.0312 15.5971 62.9595 15.4537 62.9185 15.283C62.8844 15.1123 62.8639 14.9177 62.8571 14.6992V11.5754H61.9762V10.7048ZM68.8009 8.68706H69.9685V9.79322H68.8009V8.68706ZM68.8009 10.7048H69.9685V16H68.8009V10.7048ZM70.7081 10.7048H71.589V9.11723H72.7566V10.7048H73.8115V11.5754H72.7566V14.4022C72.7566 14.5251 72.76 14.631 72.7668 14.7197C72.7805 14.8085 72.8044 14.8836 72.8385 14.9451C72.8795 15.0065 72.9375 15.0543 73.0126 15.0884C73.0877 15.1158 73.1902 15.1294 73.3199 15.1294C73.4018 15.1294 73.4838 15.1294 73.5657 15.1294C73.6476 15.1226 73.7296 15.1089 73.8115 15.0884V15.9898C73.6818 16.0034 73.5555 16.0171 73.4326 16.0307C73.3096 16.0444 73.1833 16.0512 73.0536 16.0512C72.7463 16.0512 72.4971 16.0239 72.3059 15.9693C72.1216 15.9078 71.9747 15.8225 71.8655 15.7132C71.7631 15.5971 71.6914 15.4537 71.6504 15.283C71.6163 15.1123 71.5958 14.9177 71.589 14.6992V11.5754H70.7081V10.7048ZM79.9295 16.1434C79.5061 16.1434 79.1272 16.0751 78.7926 15.9385C78.4648 15.7952 78.1849 15.6006 77.9527 15.3547C77.7274 15.1089 77.5533 14.8153 77.4304 14.4739C77.3143 14.1325 77.2563 13.757 77.2563 13.3473C77.2563 12.9444 77.3143 12.5723 77.4304 12.2309C77.5533 11.8895 77.7274 11.5958 77.9527 11.35C78.1849 11.1042 78.4648 10.913 78.7926 10.7765C79.1272 10.6331 79.5061 10.5614 79.9295 10.5614C80.3528 10.5614 80.7284 10.6331 81.0561 10.7765C81.3907 10.913 81.6707 11.1042 81.896 11.35C82.1281 11.5958 82.3023 11.8895 82.4183 12.2309C82.5412 12.5723 82.6027 12.9444 82.6027 13.3473C82.6027 13.757 82.5412 14.1325 82.4183 14.4739C82.3023 14.8153 82.1281 15.1089 81.896 15.3547C81.6707 15.6006 81.3907 15.7952 81.0561 15.9385C80.7284 16.0751 80.3528 16.1434 79.9295 16.1434ZM79.9295 15.2216C80.1889 15.2216 80.4143 15.167 80.6055 15.0577C80.7967 14.9485 80.9537 14.8051 81.0766 14.6275C81.1995 14.45 81.2883 14.252 81.3429 14.0335C81.4044 13.8082 81.4351 13.5794 81.4351 13.3473C81.4351 13.1219 81.4044 12.8966 81.3429 12.6713C81.2883 12.446 81.1995 12.2479 81.0766 12.0772C80.9537 11.8997 80.7967 11.7563 80.6055 11.6471C80.4143 11.5378 80.1889 11.4832 79.9295 11.4832C79.67 11.4832 79.4447 11.5378 79.2535 11.6471C79.0623 11.7563 78.9053 11.8997 78.7823 12.0772C78.6594 12.2479 78.5673 12.446 78.5058 12.6713C78.4512 12.8966 78.4239 13.1219 78.4239 13.3473C78.4239 13.5794 78.4512 13.8082 78.5058 14.0335C78.5673 14.252 78.6594 14.45 78.7823 14.6275C78.9053 14.8051 79.0623 14.9485 79.2535 15.0577C79.4447 15.167 79.67 15.2216 79.9295 15.2216ZM83.5734 10.7048H84.6795V11.4832L84.7 11.5037C84.8776 11.2101 85.1097 10.9813 85.3965 10.8174C85.6833 10.6467 86.0008 10.5614 86.349 10.5614C86.9294 10.5614 87.3869 10.7116 87.7215 11.012C88.0561 11.3125 88.2233 11.7631 88.2233 12.364V16H87.0557V12.6713C87.0421 12.2548 86.9533 11.9543 86.7894 11.77C86.6256 11.5788 86.3695 11.4832 86.0213 11.4832C85.8233 11.4832 85.6457 11.5207 85.4887 11.5958C85.3316 11.6641 85.1985 11.7631 85.0892 11.8929C84.98 12.0158 84.8946 12.1626 84.8332 12.3333C84.7717 12.504 84.741 12.6849 84.741 12.8761V16H83.5734V10.7048Z" fill="#143420"/>
<path d="M49.7287 20.1047H55.1059C55.9708 20.1047 56.6764 20.2299 57.2226 20.4803C57.7689 20.7306 58.1899 21.0436 58.4858 21.4192C58.7817 21.7947 58.9809 22.2044 59.0833 22.6482C59.1971 23.092 59.254 23.5017 59.254 23.8773C59.254 24.2528 59.1971 24.6625 59.0833 25.1063C58.9809 25.5388 58.7817 25.9428 58.4858 26.3183C58.1899 26.6939 57.7689 27.0068 57.2226 27.2572C56.6764 27.4962 55.9708 27.6157 55.1059 27.6157H51.8625V32.293H49.7287V20.1047ZM51.8625 25.8745H54.9864C55.2254 25.8745 55.4701 25.8404 55.7204 25.7721C55.9708 25.7038 56.1984 25.5957 56.4033 25.4478C56.6195 25.2884 56.7902 25.0836 56.9154 24.8332C57.0519 24.5715 57.1202 24.2471 57.1202 23.8602C57.1202 23.4619 57.0633 23.1319 56.9495 22.8701C56.8357 22.6084 56.6821 22.4035 56.4886 22.2556C56.2951 22.0963 56.0732 21.9882 55.8229 21.9313C55.5725 21.8744 55.3051 21.8459 55.0206 21.8459H51.8625V25.8745ZM60.8926 20.1047H62.8386V32.293H60.8926V20.1047ZM72.3504 30.3299C72.3504 30.5689 72.3789 30.7396 72.4358 30.842C72.5041 30.9444 72.6292 30.9956 72.8113 30.9956C72.8682 30.9956 72.9365 30.9956 73.0162 30.9956C73.0958 30.9956 73.1869 30.9842 73.2893 30.9615V32.31C73.221 32.3328 73.13 32.3556 73.0162 32.3783C72.9137 32.4125 72.8056 32.4409 72.6918 32.4637C72.578 32.4864 72.4642 32.5035 72.3504 32.5149C72.2366 32.5263 72.1399 32.532 72.0602 32.532C71.6619 32.532 71.3319 32.4523 71.0702 32.293C70.8084 32.1336 70.6377 31.8548 70.558 31.4565C70.1711 31.8321 69.6931 32.1052 69.1241 32.2759C68.5665 32.4466 68.0259 32.532 67.5024 32.532C67.1041 32.532 66.7229 32.4751 66.3587 32.3613C65.9946 32.2588 65.6702 32.1052 65.3857 31.9004C65.1126 31.6841 64.8907 31.4167 64.72 31.098C64.5607 30.768 64.481 30.3868 64.481 29.9543C64.481 29.4081 64.5777 28.9642 64.7712 28.6228C64.976 28.2814 65.2378 28.014 65.5564 27.8205C65.8865 27.6271 66.2506 27.4905 66.6489 27.4108C67.0586 27.3198 67.4683 27.2515 67.878 27.206C68.2308 27.1377 68.5665 27.0922 68.8851 27.0694C69.2038 27.0353 69.4826 26.9841 69.7216 26.9158C69.972 26.8475 70.1654 26.7451 70.302 26.6085C70.4499 26.4606 70.5239 26.2444 70.5239 25.9599C70.5239 25.7095 70.4613 25.5047 70.3361 25.3453C70.2223 25.186 70.0744 25.0665 69.8923 24.9869C69.7216 24.8958 69.5281 24.8389 69.3119 24.8162C69.0957 24.782 68.8908 24.7649 68.6974 24.7649C68.1511 24.7649 67.7016 24.8787 67.3488 25.1063C66.996 25.334 66.7969 25.6867 66.7514 26.1647H64.8053C64.8395 25.5957 64.976 25.1234 65.215 24.7479C65.454 24.3723 65.7556 24.0707 66.1197 23.8431C66.4953 23.6155 66.9164 23.4562 67.383 23.3652C67.8495 23.2741 68.3275 23.2286 68.8169 23.2286C69.2493 23.2286 69.6761 23.2741 70.0971 23.3652C70.5182 23.4562 70.8938 23.6042 71.2238 23.809C71.5652 24.0138 71.8383 24.2813 72.0432 24.6113C72.248 24.93 72.3504 25.3226 72.3504 25.7892V30.3299ZM70.4044 27.8717C70.1085 28.0652 69.7444 28.1847 69.3119 28.2302C68.8795 28.2644 68.447 28.3213 68.0146 28.4009C67.8097 28.4351 67.6106 28.4863 67.4171 28.5546C67.2236 28.6115 67.0529 28.6968 66.905 28.8106C66.757 28.913 66.6375 29.0553 66.5465 29.2374C66.4668 29.4081 66.427 29.6186 66.427 29.869C66.427 30.0852 66.4896 30.2673 66.6148 30.4152C66.74 30.5632 66.8879 30.6827 67.0586 30.7737C67.2407 30.8534 67.4342 30.9103 67.639 30.9444C67.8552 30.9786 68.0487 30.9956 68.2194 30.9956C68.4356 30.9956 68.6689 30.9672 68.9193 30.9103C69.1697 30.8534 69.4029 30.7566 69.6192 30.6201C69.8468 30.4835 70.0346 30.3128 70.1825 30.108C70.3304 29.8917 70.4044 29.63 70.4044 29.3227V27.8717ZM73.4713 23.4676H75.6051L77.9096 30.0568H77.9438L80.18 23.4676H82.2114L78.7802 32.7709C78.6209 33.1692 78.4616 33.5505 78.3022 33.9147C78.1543 34.2788 77.9665 34.5975 77.7389 34.8706C77.5227 35.1551 77.2496 35.377 76.9195 35.5363C76.5895 35.707 76.1685 35.7924 75.6563 35.7924C75.2011 35.7924 74.7516 35.7583 74.3078 35.69V34.0512C74.4671 34.074 74.6207 34.0967 74.7687 34.1195C74.9166 34.1536 75.0703 34.1707 75.2296 34.1707C75.4572 34.1707 75.645 34.1423 75.7929 34.0854C75.9408 34.0285 76.0603 33.9431 76.1514 33.8293C76.2538 33.7269 76.3392 33.6017 76.4074 33.4538C76.4757 33.3058 76.5383 33.1351 76.5952 32.9416L76.8171 32.2588L73.4713 23.4676ZM89.7202 28.2302C89.7202 28.6968 89.7998 29.0951 89.9592 29.4251C90.1185 29.7552 90.3404 30.0283 90.6249 30.2445C90.9094 30.4494 91.2338 30.603 91.5979 30.7054C91.9735 30.7965 92.3775 30.842 92.8099 30.842C93.2765 30.842 93.6748 30.7908 94.0048 30.6884C94.3349 30.5746 94.6023 30.4323 94.8071 30.2616C95.012 30.0909 95.1599 29.8974 95.251 29.6812C95.342 29.4536 95.3875 29.226 95.3875 28.9984C95.3875 28.5318 95.2794 28.1904 95.0632 27.9742C94.8584 27.7466 94.6308 27.5872 94.3804 27.4962C93.9479 27.3369 93.4415 27.1889 92.8611 27.0524C92.2921 26.9044 91.5865 26.7167 90.7444 26.489C90.2209 26.3525 89.7828 26.1761 89.43 25.9599C89.0886 25.7323 88.8155 25.4819 88.6106 25.2088C88.4058 24.9356 88.2578 24.6455 88.1668 24.3382C88.0871 24.0309 88.0473 23.718 88.0473 23.3993C88.0473 22.7848 88.1725 22.2556 88.4228 21.8118C88.6846 21.3566 89.026 20.981 89.4471 20.6851C89.8681 20.3892 90.3461 20.173 90.881 20.0365C91.4158 19.8885 91.9564 19.8145 92.5026 19.8145C93.1399 19.8145 93.7374 19.8999 94.295 20.0706C94.864 20.2299 95.3591 20.4746 95.7802 20.8046C96.2126 21.1346 96.554 21.5443 96.8044 22.0337C97.0547 22.5117 97.1799 23.0693 97.1799 23.7066H95.0461C94.9892 22.9213 94.7218 22.3694 94.2438 22.0508C93.7659 21.7207 93.157 21.5557 92.4173 21.5557C92.1669 21.5557 91.9109 21.5842 91.6491 21.6411C91.3874 21.6866 91.1484 21.7719 90.9322 21.8971C90.716 22.0109 90.5339 22.1702 90.3859 22.3751C90.2494 22.5799 90.1811 22.836 90.1811 23.1433C90.1811 23.5757 90.312 23.9171 90.5737 24.1675C90.8468 24.4065 91.1996 24.5885 91.6321 24.7137C91.6776 24.7251 91.854 24.7763 92.1612 24.8674C92.4799 24.947 92.8327 25.0381 93.2196 25.1405C93.6065 25.2429 93.9821 25.3453 94.3462 25.4478C94.7218 25.5388 94.9892 25.6071 95.1486 25.6526C95.5469 25.7778 95.894 25.9485 96.1898 26.1647C96.4857 26.3809 96.7304 26.6313 96.9239 26.9158C97.1287 27.1889 97.2767 27.4848 97.3677 27.8035C97.4701 28.1221 97.5213 28.4408 97.5213 28.7594C97.5213 29.4422 97.3791 30.0283 97.0946 30.5177C96.8214 30.9956 96.4573 31.3882 96.0021 31.6955C95.5469 32.0028 95.0291 32.2247 94.4487 32.3613C93.8683 32.5092 93.2765 32.5832 92.6734 32.5832C91.9792 32.5832 91.3248 32.4978 90.7103 32.3271C90.0957 32.1564 89.5609 31.8947 89.1056 31.5419C88.6504 31.1891 88.2863 30.7396 88.0131 30.1933C87.74 29.6357 87.5978 28.9813 87.5864 28.2302H89.7202ZM98.2287 23.4676H99.6967V20.8217H101.643V23.4676H103.401V24.9186H101.643V29.63C101.643 29.8348 101.648 30.0112 101.66 30.1592C101.683 30.3071 101.722 30.4323 101.779 30.5347C101.848 30.6371 101.944 30.7168 102.07 30.7737C102.195 30.8192 102.365 30.842 102.582 30.842C102.718 30.842 102.855 30.842 102.991 30.842C103.128 30.8306 103.264 30.8078 103.401 30.7737V32.2759C103.185 32.2987 102.974 32.3214 102.769 32.3442C102.565 32.3669 102.354 32.3783 102.138 32.3783C101.626 32.3783 101.21 32.3328 100.892 32.2418C100.584 32.1393 100.34 31.9971 100.158 31.815C99.9869 31.6215 99.8674 31.3825 99.7992 31.098C99.7423 30.8135 99.7081 30.4892 99.6967 30.125V24.9186H98.2287V23.4676ZM108.847 32.532C108.141 32.532 107.509 32.4182 106.952 32.1905C106.406 31.9516 105.939 31.6272 105.552 31.2175C105.176 30.8078 104.886 30.3185 104.681 29.7495C104.488 29.1805 104.391 28.5546 104.391 27.8717C104.391 27.2003 104.488 26.5801 104.681 26.0111C104.886 25.4421 105.176 24.9527 105.552 24.543C105.939 24.1333 106.406 23.8147 106.952 23.5871C107.509 23.3481 108.141 23.2286 108.847 23.2286C109.552 23.2286 110.178 23.3481 110.724 23.5871C111.282 23.8147 111.749 24.1333 112.124 24.543C112.511 24.9527 112.801 25.4421 112.995 26.0111C113.2 26.5801 113.302 27.2003 113.302 27.8717C113.302 28.5546 113.2 29.1805 112.995 29.7495C112.801 30.3185 112.511 30.8078 112.124 31.2175C111.749 31.6272 111.282 31.9516 110.724 32.1905C110.178 32.4182 109.552 32.532 108.847 32.532ZM108.847 30.9956C109.279 30.9956 109.655 30.9046 109.973 30.7225C110.292 30.5404 110.554 30.3014 110.758 30.0055C110.963 29.7097 111.111 29.3796 111.202 29.0155C111.305 28.6399 111.356 28.2587 111.356 27.8717C111.356 27.4962 111.305 27.1207 111.202 26.7451C111.111 26.3696 110.963 26.0395 110.758 25.755C110.554 25.4591 110.292 25.2202 109.973 25.0381C109.655 24.856 109.279 24.7649 108.847 24.7649C108.414 24.7649 108.039 24.856 107.72 25.0381C107.401 25.2202 107.14 25.4591 106.935 25.755C106.73 26.0395 106.576 26.3696 106.474 26.7451C106.383 27.1207 106.337 27.4962 106.337 27.8717C106.337 28.2587 106.383 28.6399 106.474 29.0155C106.576 29.3796 106.73 29.7097 106.935 30.0055C107.14 30.3014 107.401 30.5404 107.72 30.7225C108.039 30.9046 108.414 30.9956 108.847 30.9956ZM114.92 23.4676H116.746V25.1746H116.78C116.837 24.9356 116.945 24.7024 117.105 24.4747C117.275 24.2471 117.475 24.0423 117.702 23.8602C117.941 23.6668 118.203 23.5131 118.487 23.3993C118.772 23.2855 119.062 23.2286 119.358 23.2286C119.586 23.2286 119.739 23.2343 119.819 23.2457C119.91 23.2571 120.001 23.2684 120.092 23.2798V25.1576C119.956 25.1348 119.813 25.1177 119.665 25.1063C119.529 25.0836 119.392 25.0722 119.256 25.0722C118.926 25.0722 118.613 25.1405 118.317 25.2771C118.032 25.4022 117.782 25.5957 117.566 25.8574C117.349 26.1078 117.179 26.4208 117.054 26.7963C116.928 27.1719 116.866 27.6043 116.866 28.0937V32.293H114.92V23.4676ZM126.681 27.1036C126.658 26.7963 126.59 26.5004 126.476 26.2159C126.374 25.9314 126.226 25.6867 126.032 25.4819C125.85 25.2657 125.623 25.095 125.349 24.9698C125.088 24.8332 124.792 24.7649 124.462 24.7649C124.12 24.7649 123.807 24.8275 123.523 24.9527C123.25 25.0665 123.011 25.2315 122.806 25.4478C122.613 25.6526 122.453 25.8973 122.328 26.1818C122.214 26.4663 122.152 26.7736 122.14 27.1036H126.681ZM122.14 28.3839C122.14 28.7253 122.186 29.0553 122.277 29.3739C122.379 29.6926 122.527 29.9714 122.721 30.2104C122.914 30.4494 123.159 30.6428 123.455 30.7908C123.751 30.9273 124.103 30.9956 124.513 30.9956C125.082 30.9956 125.537 30.8761 125.879 30.6371C126.231 30.3868 126.493 30.0169 126.664 29.5276H128.507C128.405 30.0055 128.229 30.4323 127.978 30.8078C127.728 31.1834 127.426 31.502 127.074 31.7638C126.721 32.0142 126.322 32.2019 125.879 32.3271C125.446 32.4637 124.991 32.532 124.513 32.532C123.819 32.532 123.204 32.4182 122.669 32.1905C122.135 31.9629 121.679 31.6443 121.304 31.2346C120.94 30.8249 120.661 30.3356 120.467 29.7666C120.285 29.1975 120.194 28.5716 120.194 27.8888C120.194 27.2629 120.291 26.6711 120.484 26.1135C120.689 25.5445 120.974 25.0494 121.338 24.6284C121.713 24.1959 122.163 23.8545 122.686 23.6042C123.21 23.3538 123.802 23.2286 124.462 23.2286C125.156 23.2286 125.776 23.3766 126.322 23.6724C126.88 23.9569 127.341 24.3382 127.705 24.8162C128.069 25.2941 128.331 25.8461 128.49 26.472C128.661 27.0865 128.707 27.7238 128.627 28.3839H122.14Z" fill="#143420"/>
</svg>
